<svg width="105" height="105" viewBox="0 0 105 105" fill="none" xmlns="http://www.w3.org/2000/svg">
<g id="Flattened Logo ">
<g id="Vector">
<path d="M105 52.5C105 81.495 81.495 105 52.5 105C23.5051 105 0 81.495 0 52.5C0 23.5051 23.5051 0 52.5 0C81.495 0 105 23.5051 105 52.5Z" fill="#1ED7B2"/>
<path d="M28.3784 35.9889H28.3944L28.3784 35.9627V35.9889Z" fill="#151515"/>
<path d="M42.5535 76.1262C41.5572 73.4292 41.7661 69.096 45.9325 64.6486L36.58 49.3653L33.3771 52.7684C25.1907 61.4664 22.8233 72.5973 26.3393 82.1155C29.8746 91.6862 38.9425 98.3284 50.4362 98.4211C58.3718 98.4851 65.2158 95.43 69.9963 90.1428C74.677 84.9661 76.9495 78.1449 76.9495 71.2039V35.9889H89.4298L78.8524 18.7039H28.7055L39.2829 35.9889H59.6644V71.2039C59.6644 74.4534 58.6087 76.9646 57.1751 78.5502C55.8412 80.0254 53.7846 81.1625 50.5756 81.1366C46.0743 81.1004 43.5329 78.7776 42.5535 76.1262Z" fill="#151515"/>
</g>
</g>
</svg>
