<svg width="68" height="68" viewBox="0 0 68 68" fill="none" xmlns="http://www.w3.org/2000/svg">
<path d="M27.9979 6.46925C29.5244 0.176917 38.4756 0.176917 40.0021 6.46925C40.2311 7.41453 40.6801 8.29237 41.3125 9.03133C41.945 9.77029 42.7429 10.3495 43.6415 10.7218C44.5401 11.094 45.5138 11.2489 46.4836 11.1737C47.4533 11.0985 48.3915 10.7954 49.222 10.2891C54.7511 6.92075 61.0828 13.2489 57.7145 18.7816C57.2089 19.6117 56.9063 20.5494 56.8313 21.5184C56.7562 22.4875 56.911 23.4606 57.2828 24.3586C57.6546 25.2566 58.2331 26.0542 58.9713 26.6866C59.7094 27.319 60.5863 27.7682 61.5307 27.9979C67.8231 29.5244 67.8231 38.4756 61.5307 40.0021C60.5855 40.2311 59.7076 40.6801 58.9687 41.3125C58.2297 41.945 57.6505 42.7429 57.2782 43.6415C56.906 44.5401 56.7511 45.5138 56.8263 46.4836C56.9015 47.4533 57.2046 48.3915 57.7109 49.222C61.0792 54.7511 54.7511 61.0828 49.2184 57.7145C48.3883 57.2089 47.4506 56.9063 46.4816 56.8313C45.5125 56.7562 44.5394 56.911 43.6414 57.2828C42.7434 57.6546 41.9458 58.2331 41.3134 58.9713C40.681 59.7094 40.2317 60.5863 40.0021 61.5307C38.4756 67.8231 29.5244 67.8231 27.9979 61.5307C27.7689 60.5855 27.3199 59.7076 26.6875 58.9687C26.055 58.2297 25.2571 57.6505 24.3585 57.2782C23.4599 56.906 22.4862 56.7511 21.5164 56.8263C20.5467 56.9015 19.6084 57.2046 18.778 57.7109C13.2489 61.0792 6.91717 54.7511 10.2855 49.2184C10.7911 48.3883 11.0937 47.4506 11.1687 46.4816C11.2437 45.5125 11.089 44.5394 10.7172 43.6414C10.3453 42.7434 9.76685 41.9458 9.02873 41.3134C8.29061 40.681 7.41369 40.2317 6.46925 40.0021C0.176917 38.4756 0.176917 29.5244 6.46925 27.9979C7.41453 27.7689 8.29237 27.3199 9.03133 26.6875C9.77029 26.055 10.3495 25.2571 10.7218 24.3585C11.094 23.4599 11.2489 22.4862 11.1737 21.5164C11.0985 20.5467 10.7954 19.6084 10.2891 18.778C6.92075 13.2489 13.2489 6.91717 18.7816 10.2855C22.3649 12.4642 27.0089 10.5363 27.9979 6.46925Z" stroke="#A5A5A5" stroke-width="3" stroke-linecap="round" stroke-linejoin="round"/>
<path d="M34 44.75C39.9371 44.75 44.75 39.9371 44.75 34C44.75 28.0629 39.9371 23.25 34 23.25C28.0629 23.25 23.25 28.0629 23.25 34C23.25 39.9371 28.0629 44.75 34 44.75Z" stroke="#A5A5A5" stroke-width="3" stroke-linecap="round" stroke-linejoin="round"/>
</svg>
