<svg version="1.1" id="Layer_1" xmlns="http://www.w3.org/2000/svg" xmlns:xlink="http://www.w3.org/1999/xlink" x="0px" y="0px"
	 width="100%" viewBox="0 0 833 777" enable-background="new 0 0 833 777" xml:space="preserve">
<path fill="#232323" opacity="1.000000" stroke="none" 
	d="
M472.000000,778.000000 
	C314.666718,778.000000 157.833420,778.000000 1.000105,778.000000 
	C1.000070,519.000122 1.000070,260.000244 1.000035,1.000279 
	C278.666473,1.000186 556.332947,1.000186 833.999512,1.000093 
	C833.999695,259.999725 833.999695,518.999451 833.999878,777.999573 
	C713.500000,778.000000 593.000000,778.000000 472.000000,778.000000 
M100.941566,422.540558 
	C101.904129,429.796082 102.636818,437.090759 103.864723,444.301086 
	C116.488281,518.426880 150.490204,581.204773 206.794662,630.809937 
	C281.242035,696.399353 368.537567,722.741272 466.897034,708.990295 
	C548.760559,697.545532 616.473328,659.016602 668.666565,595.134033 
	C729.509216,520.664734 752.381409,434.811157 737.570862,339.909302 
	C725.533386,262.777283 689.110107,198.090912 629.519714,147.657104 
	C553.300049,83.149261 464.990021,58.833916 366.433685,74.999237 
	C287.813721,87.894585 222.868149,126.138336 172.506165,187.638870 
	C116.867760,255.582825 93.437195,334.040344 100.941566,422.540558 
z"/>
<path fill="#1ED655" opacity="1.000000" stroke="none" 
	d="
M100.921677,422.082642 
	C93.437195,334.040344 116.867760,255.582825 172.506165,187.638870 
	C222.868149,126.138336 287.813721,87.894585 366.433685,74.999237 
	C464.990021,58.833916 553.300049,83.149261 629.519714,147.657104 
	C689.110107,198.090912 725.533386,262.777283 737.570862,339.909302 
	C752.381409,434.811157 729.509216,520.664734 668.666565,595.134033 
	C616.473328,659.016602 548.760559,697.545532 466.897034,708.990295 
	C368.537567,722.741272 281.242035,696.399353 206.794662,630.809937 
	C150.490204,581.204773 116.488281,518.426880 103.864723,444.301086 
	C102.636818,437.090759 101.904129,429.796082 100.921677,422.082642 
M580.143921,516.720947 
	C580.452515,512.403625 581.025208,508.086578 581.030273,503.768890 
	C581.115356,431.609161 581.129395,359.449310 581.159180,287.289490 
	C581.159973,285.339874 581.159302,283.390228 581.159302,280.935547 
	C592.354309,280.935547 602.979004,281.055786 613.600220,280.913116 
	C646.211182,280.475098 670.920471,249.518295 664.225098,217.592850 
	C658.963379,192.504135 637.847107,175.149979 612.104492,175.092728 
	C567.441956,174.993408 522.778931,175.064484 478.116150,175.064423 
	C395.289978,175.064301 312.463776,175.054977 229.637604,175.072769 
	C213.998398,175.076141 200.411819,180.499786 190.059097,192.194534 
	C174.965881,209.244354 171.406281,228.936447 180.824539,249.742737 
	C190.245605,270.555145 207.407486,280.838959 230.172455,280.881073 
	C309.665314,281.028076 389.158600,280.937988 468.651733,280.937988 
	C470.761780,280.937988 472.871826,280.938019 475.073212,280.938019 
	C475.221252,282.567780 475.387390,283.543762 475.387543,284.519775 
	C475.398895,355.846954 475.454376,427.174194 475.350067,498.501221 
	C475.328064,513.534851 471.492157,527.603943 461.821930,539.432129 
	C449.451569,554.562866 432.552460,558.243286 414.116150,556.846497 
	C382.134033,554.423523 363.088226,529.510498 368.835236,497.987396 
	C371.974152,480.769775 381.756744,467.367462 392.889862,454.447754 
	C407.240906,437.793671 410.255371,418.604401 401.430450,398.513153 
	C392.777313,378.812988 376.886780,368.257416 355.373932,367.065277 
	C337.705505,366.086151 323.488953,373.416626 311.890289,386.558014 
	C276.828430,426.283417 257.613861,471.686005 263.013245,525.462524 
	C267.182770,566.989807 285.441986,601.580078 318.015442,627.779846 
	C356.361023,658.622253 400.747986,668.163208 448.677490,660.556213 
	C524.727356,648.486206 572.411194,587.965698 580.143921,516.720947 
M413.666016,350.273529 
	C430.220795,350.273529 446.775604,350.273529 463.728271,350.273529 
	C463.728271,341.614319 463.861603,332.809082 463.547211,324.019867 
	C463.510895,323.004181 461.024750,321.305298 459.607910,321.233368 
	C449.468903,320.718872 439.313934,320.362854 429.161682,320.291046 
	C371.247314,319.881287 313.777405,324.897491 256.813293,335.257355 
	C236.537704,338.944794 216.424011,343.547638 196.290573,347.978729 
	C188.484467,349.696747 184.111786,355.158508 183.944778,362.224182 
	C183.678299,373.497162 192.987030,379.547363 205.670349,376.521362 
	C273.731781,360.283081 342.711884,351.255402 413.666016,350.273529 
M637.759338,377.667694 
	C646.819946,377.597198 653.146851,372.584534 654.051941,364.759491 
	C655.024414,356.351654 650.397095,350.055084 641.380249,347.823059 
	C632.014526,345.504730 622.628113,343.261078 613.211365,341.161224 
	C606.149536,339.586548 599.025330,338.291351 591.402344,336.766388 
	C591.402344,346.531525 591.284424,355.512360 591.543213,364.482300 
	C591.577759,365.679504 593.341309,367.571869 594.607117,367.874329 
	C608.682800,371.237915 622.818115,374.351593 637.759338,377.667694 
M208.982040,473.402802 
	C213.436829,478.292084 218.779816,479.748047 225.224518,478.087067 
	C233.740448,475.892242 242.351364,474.067352 250.878433,471.913177 
	C252.310593,471.551361 254.342651,470.595337 254.712646,469.461853 
	C258.027863,459.305206 261.032867,449.047272 264.335907,438.136078 
	C248.913834,441.735596 233.732330,445.150421 218.619644,448.846619 
	C206.331451,451.852020 202.258926,461.763855 208.982040,473.402802 
M463.744690,453.107819 
	C463.744690,444.164642 463.744690,435.221436 463.744690,425.637085 
	C447.604736,424.754639 432.072021,423.905365 417.693054,423.119171 
	C414.527588,433.803375 411.691498,443.375824 408.928375,452.702118 
	C425.878510,453.740845 443.150024,454.835297 460.430145,455.770691 
	C461.491760,455.828125 462.621429,454.629578 463.744690,453.107819 
M385.926025,522.229309 
	C384.219055,522.518738 382.512085,522.808105 380.739563,523.108643 
	C385.352997,538.125488 400.200409,546.958130 420.005463,546.940613 
	C438.674377,546.924072 453.668304,537.631287 458.080322,522.910034 
	C434.271973,520.273193 410.561157,520.541138 385.926025,522.229309 
M591.387268,462.500977 
	C591.387939,466.658325 591.163208,470.834991 591.516418,474.962158 
	C591.633789,476.333344 593.000549,478.399384 594.198059,478.741791 
	C600.414734,480.519073 606.728638,482.003693 613.071045,483.280823 
	C620.478088,484.772339 627.463135,480.511871 629.939941,473.323700 
	C632.294373,466.490723 629.641724,458.132935 622.766785,455.662476 
	C612.878967,452.109406 602.475403,449.991821 591.387695,447.019104 
	C591.387695,452.646973 591.387695,457.077576 591.387268,462.500977 
M231.872253,555.514343 
	C228.084930,561.035889 227.995392,566.743530 231.503479,572.319885 
	C234.698135,577.397888 239.603012,579.872559 245.521454,578.967407 
	C251.368088,578.073242 257.095276,576.398071 262.895905,575.060608 
	C259.755829,565.312378 256.784821,556.088928 253.673615,546.430359 
	C246.199112,548.827087 237.881165,548.224304 231.872253,555.514343 
M580.901245,561.277588 
	C579.154175,565.913147 577.407166,570.548706 575.394653,575.888733 
	C581.165894,577.021973 586.464417,578.629761 591.844543,578.977783 
	C598.853271,579.431091 604.659180,574.289795 606.118530,567.471130 
	C607.621521,560.448547 604.221924,553.163635 597.725647,550.598511 
	C593.802979,549.049744 589.563965,548.302185 585.374329,547.169495 
	C583.834656,551.998230 582.475830,556.259644 580.901245,561.277588 
z"/>
<path fill="#010201" opacity="1.000000" stroke="none" 
	d="
M580.105286,517.171509 
	C572.411194,587.965698 524.727356,648.486206 448.677490,660.556213 
	C400.747986,668.163208 356.361023,658.622253 318.015442,627.779846 
	C285.441986,601.580078 267.182770,566.989807 263.013245,525.462524 
	C257.613861,471.686005 276.828430,426.283417 311.890289,386.558014 
	C323.488953,373.416626 337.705505,366.086151 355.373932,367.065277 
	C376.886780,368.257416 392.777313,378.812988 401.430450,398.513153 
	C410.255371,418.604401 407.240906,437.793671 392.889862,454.447754 
	C381.756744,467.367462 371.974152,480.769775 368.835236,497.987396 
	C363.088226,529.510498 382.134033,554.423523 414.116150,556.846497 
	C432.552460,558.243286 449.451569,554.562866 461.821930,539.432129 
	C471.492157,527.603943 475.328064,513.534851 475.350067,498.501221 
	C475.454376,427.174194 475.398895,355.846954 475.387543,284.519775 
	C475.387390,283.543762 475.221252,282.567780 475.073212,280.938019 
	C472.871826,280.938019 470.761780,280.937988 468.651733,280.937988 
	C389.158600,280.937988 309.665314,281.028076 230.172455,280.881073 
	C207.407486,280.838959 190.245605,270.555145 180.824539,249.742737 
	C171.406281,228.936447 174.965881,209.244354 190.059097,192.194534 
	C200.411819,180.499786 213.998398,175.076141 229.637604,175.072769 
	C312.463776,175.054977 395.289978,175.064301 478.116150,175.064423 
	C522.778931,175.064484 567.441956,174.993408 612.104492,175.092728 
	C637.847107,175.149979 658.963379,192.504135 664.225098,217.592850 
	C670.920471,249.518295 646.211182,280.475098 613.600220,280.913116 
	C602.979004,281.055786 592.354309,280.935547 581.159302,280.935547 
	C581.159302,283.390228 581.159973,285.339874 581.159180,287.289490 
	C581.129395,359.449310 581.115356,431.609161 581.030273,503.768890 
	C581.025208,508.086578 580.452515,512.403625 580.105286,517.171509 
M505.496613,423.499634 
	C505.496613,446.665070 505.613098,469.831451 505.428284,492.995422 
	C505.370026,500.300232 505.081757,507.693085 503.904572,514.882874 
	C499.743469,540.297180 488.352692,561.502930 466.005493,575.506531 
	C447.895111,586.855103 427.918488,589.207275 406.931335,587.152710 
	C367.115814,583.255127 336.539062,550.510315 336.192291,510.558594 
	C335.940002,481.495178 348.042236,457.445526 367.121124,436.447693 
	C376.511963,426.112366 376.957855,412.730194 367.750519,403.910797 
	C358.364166,394.919861 344.470184,395.681000 334.971802,406.086914 
	C311.598450,431.693298 295.886108,461.062378 292.748932,496.085785 
	C288.965210,538.327515 302.314819,574.278320 334.586884,602.174744 
	C361.236298,625.210815 393.133179,633.771545 427.798645,631.822327 
	C469.384338,629.484009 502.914154,611.785217 526.452393,576.889221 
	C543.278076,551.944519 549.805359,523.883606 549.819763,494.117188 
	C549.858093,414.787567 549.832764,335.457947 549.832764,256.128326 
	C549.832764,254.202286 549.832764,252.276245 549.832764,250.071976 
	C552.092224,250.071976 553.736145,250.072006 555.380127,250.071991 
	C575.712524,250.071747 596.045044,250.120514 616.377197,250.048355 
	C625.146240,250.017212 631.812256,245.902603 635.863525,238.291260 
	C639.721680,231.042801 639.490173,223.475525 635.085632,216.418228 
	C630.465942,209.016251 623.573242,205.885651 614.861816,205.889420 
	C485.034546,205.945465 355.207275,205.928055 225.380020,205.930069 
	C224.547073,205.930084 223.713028,205.937393 222.881348,205.978561 
	C211.690216,206.532639 202.507706,215.770950 202.021179,226.958038 
	C201.445404,240.197021 211.514069,250.058975 225.766357,250.062027 
	C316.928772,250.081467 408.091156,250.071960 499.253571,250.071976 
	C501.212708,250.071976 503.171814,250.071976 505.496643,250.071976 
	C505.496643,307.888672 505.496643,365.194122 505.496613,423.499634 
z"/>
<path fill="#000301" opacity="1.000000" stroke="none" 
	d="
M413.187866,350.273682 
	C342.711884,351.255402 273.731781,360.283081 205.670349,376.521362 
	C192.987030,379.547363 183.678299,373.497162 183.944778,362.224182 
	C184.111786,355.158508 188.484467,349.696747 196.290573,347.978729 
	C216.424011,343.547638 236.537704,338.944794 256.813293,335.257355 
	C313.777405,324.897491 371.247314,319.881287 429.161682,320.291046 
	C439.313934,320.362854 449.468903,320.718872 459.607910,321.233368 
	C461.024750,321.305298 463.510895,323.004181 463.547211,324.019867 
	C463.861603,332.809082 463.728271,341.614319 463.728271,350.273529 
	C446.775604,350.273529 430.220795,350.273529 413.187866,350.273682 
z"/>
<path fill="#010402" opacity="1.000000" stroke="none" 
	d="
M637.348389,377.600220 
	C622.818115,374.351593 608.682800,371.237915 594.607117,367.874329 
	C593.341309,367.571869 591.577759,365.679504 591.543213,364.482300 
	C591.284424,355.512360 591.402344,346.531525 591.402344,336.766388 
	C599.025330,338.291351 606.149536,339.586548 613.211365,341.161224 
	C622.628113,343.261078 632.014526,345.504730 641.380249,347.823059 
	C650.397095,350.055084 655.024414,356.351654 654.051941,364.759491 
	C653.146851,372.584534 646.819946,377.597198 637.348389,377.600220 
z"/>
<path fill="#000301" opacity="1.000000" stroke="none" 
	d="
M208.739853,473.118195 
	C202.258926,461.763855 206.331451,451.852020 218.619644,448.846619 
	C233.732330,445.150421 248.913834,441.735596 264.335907,438.136078 
	C261.032867,449.047272 258.027863,459.305206 254.712646,469.461853 
	C254.342651,470.595337 252.310593,471.551361 250.878433,471.913177 
	C242.351364,474.067352 233.740448,475.892242 225.224518,478.087067 
	C218.779816,479.748047 213.436829,478.292084 208.739853,473.118195 
z"/>
<path fill="#010402" opacity="1.000000" stroke="none" 
	d="
M463.732056,453.561646 
	C462.621429,454.629578 461.491760,455.828125 460.430145,455.770691 
	C443.150024,454.835297 425.878510,453.740845 408.928375,452.702118 
	C411.691498,443.375824 414.527588,433.803375 417.693054,423.119171 
	C432.072021,423.905365 447.604736,424.754639 463.744690,425.637085 
	C463.744690,435.221436 463.744690,444.164642 463.732056,453.561646 
z"/>
<path fill="#000401" opacity="1.000000" stroke="none" 
	d="
M386.376007,522.195923 
	C410.561157,520.541138 434.271973,520.273193 458.080322,522.910034 
	C453.668304,537.631287 438.674377,546.924072 420.005463,546.940613 
	C400.200409,546.958130 385.352997,538.125488 380.739563,523.108643 
	C382.512085,522.808105 384.219055,522.518738 386.376007,522.195923 
z"/>
<path fill="#010502" opacity="1.000000" stroke="none" 
	d="
M591.387451,462.004578 
	C591.387695,457.077576 591.387695,452.646973 591.387695,447.019104 
	C602.475403,449.991821 612.878967,452.109406 622.766785,455.662476 
	C629.641724,458.132935 632.294373,466.490723 629.939941,473.323700 
	C627.463135,480.511871 620.478088,484.772339 613.071045,483.280823 
	C606.728638,482.003693 600.414734,480.519073 594.198059,478.741791 
	C593.000549,478.399384 591.633789,476.333344 591.516418,474.962158 
	C591.163208,470.834991 591.387939,466.658325 591.387451,462.004578 
z"/>
<path fill="#000401" opacity="1.000000" stroke="none" 
	d="
M232.068146,555.196655 
	C237.881165,548.224304 246.199112,548.827087 253.673615,546.430359 
	C256.784821,556.088928 259.755829,565.312378 262.895905,575.060608 
	C257.095276,576.398071 251.368088,578.073242 245.521454,578.967407 
	C239.603012,579.872559 234.698135,577.397888 231.503479,572.319885 
	C227.995392,566.743530 228.084930,561.035889 232.068146,555.196655 
z"/>
<path fill="#010402" opacity="1.000000" stroke="none" 
	d="
M581.009155,560.899292 
	C582.475830,556.259644 583.834656,551.998230 585.374329,547.169495 
	C589.563965,548.302185 593.802979,549.049744 597.725647,550.598511 
	C604.221924,553.163635 607.621521,560.448547 606.118530,567.471130 
	C604.659180,574.289795 598.853271,579.431091 591.844543,578.977783 
	C586.464417,578.629761 581.165894,577.021973 575.394653,575.888733 
	C577.407166,570.548706 579.154175,565.913147 581.009155,560.899292 
z"/>
<path fill="#D3FDE4" opacity="1.000000" stroke="none" 
	d="
M505.496643,422.999634 
	C505.496643,365.194122 505.496643,307.888672 505.496643,250.071976 
	C503.171814,250.071976 501.212708,250.071976 499.253571,250.071976 
	C408.091156,250.071960 316.928772,250.081467 225.766357,250.062027 
	C211.514069,250.058975 201.445404,240.197021 202.021179,226.958038 
	C202.507706,215.770950 211.690216,206.532639 222.881348,205.978561 
	C223.713028,205.937393 224.547073,205.930084 225.380020,205.930069 
	C355.207275,205.928055 485.034546,205.945465 614.861816,205.889420 
	C623.573242,205.885651 630.465942,209.016251 635.085632,216.418228 
	C639.490173,223.475525 639.721680,231.042801 635.863525,238.291260 
	C631.812256,245.902603 625.146240,250.017212 616.377197,250.048355 
	C596.045044,250.120514 575.712524,250.071747 555.380127,250.071991 
	C553.736145,250.072006 552.092224,250.071976 549.832764,250.071976 
	C549.832764,252.276245 549.832764,254.202286 549.832764,256.128326 
	C549.832764,335.457947 549.858093,414.787567 549.819763,494.117188 
	C549.805359,523.883606 543.278076,551.944519 526.452393,576.889221 
	C502.914154,611.785217 469.384338,629.484009 427.798645,631.822327 
	C393.133179,633.771545 361.236298,625.210815 334.586884,602.174744 
	C302.314819,574.278320 288.965210,538.327515 292.748932,496.085785 
	C295.886108,461.062378 311.598450,431.693298 334.971802,406.086914 
	C344.470184,395.681000 358.364166,394.919861 367.750519,403.910797 
	C376.957855,412.730194 376.511963,426.112366 367.121124,436.447693 
	C348.042236,457.445526 335.940002,481.495178 336.192291,510.558594 
	C336.539062,550.510315 367.115814,583.255127 406.931335,587.152710 
	C427.918488,589.207275 447.895111,586.855103 466.005493,575.506531 
	C488.352692,561.502930 499.743469,540.297180 503.904572,514.882874 
	C505.081757,507.693085 505.370026,500.300232 505.428284,492.995422 
	C505.613098,469.831451 505.496613,446.665070 505.496643,422.999634 
z"/>
</svg>