<?xml version="1.0" encoding="UTF-8"?>
<!DOCTYPE svg PUBLIC "-//W3C//DTD SVG 1.1//EN" "http://www.w3.org/Graphics/SVG/1.1/DTD/svg11.dtd">
<svg xmlns="http://www.w3.org/2000/svg" version="1.1" width="407px" height="407px" style="shape-rendering:geometricPrecision; text-rendering:geometricPrecision; image-rendering:optimizeQuality; fill-rule:evenodd; clip-rule:evenodd" xmlns:xlink="http://www.w3.org/1999/xlink">
<g><path style="opacity:0.996" fill="#1dd6b1" d="M 183.5,-0.5 C 196.5,-0.5 209.5,-0.5 222.5,-0.5C 292.795,8.65273 345.962,43.6527 382,104.5C 395.295,129.374 403.461,155.707 406.5,183.5C 406.5,196.5 406.5,209.5 406.5,222.5C 397.347,292.795 362.347,345.962 301.5,382C 276.626,395.295 250.293,403.461 222.5,406.5C 209.5,406.5 196.5,406.5 183.5,406.5C 113.205,397.347 60.038,362.347 24,301.5C 10.7052,276.626 2.53854,250.293 -0.5,222.5C -0.5,209.5 -0.5,196.5 -0.5,183.5C 8.65273,113.205 43.6527,60.038 104.5,24C 129.374,10.7052 155.707,2.53854 183.5,-0.5 Z"/></g>
<g><path style="opacity:1" fill="#151515" d="M 345.5,138.5 C 329.5,138.5 313.5,138.5 297.5,138.5C 297.5,186.5 297.5,234.5 297.5,282.5C 294.422,325.532 273.422,356.032 234.5,374C 198.544,386.382 164.878,382.049 133.5,361C 105.227,337.936 92.7275,308.102 96,271.5C 98.7907,250.786 106.457,232.119 119,215.5C 125.867,207.121 133.2,199.121 141,191.5C 153.542,210.748 165.709,230.248 177.5,250C 168.257,259.061 163.257,270.061 162.5,283C 162.962,298.468 170.628,308.468 185.5,313C 211.669,317.303 226.669,306.47 230.5,280.5C 231.499,233.336 231.832,186.003 231.5,138.5C 204.833,138.5 178.167,138.5 151.5,138.5C 138.303,116.611 124.97,94.7778 111.5,73C 176.167,72.3333 240.833,72.3333 305.5,73C 318.97,94.7778 332.303,116.611 345.5,138.5 Z"/></g>
<g><path style="opacity:1" fill="#185145" d="M 151.5,138.5 C 178.167,138.5 204.833,138.5 231.5,138.5C 231.832,186.003 231.499,233.336 230.5,280.5C 230.5,233.5 230.5,186.5 230.5,139.5C 203.995,139.831 177.661,139.498 151.5,138.5 Z"/></g>
<g><path style="opacity:1" fill="#1b9c82" d="M 345.5,138.5 C 330.009,139.496 314.342,139.83 298.5,139.5C 298.832,187.336 298.499,235.003 297.5,282.5C 297.5,234.5 297.5,186.5 297.5,138.5C 313.5,138.5 329.5,138.5 345.5,138.5 Z"/></g>
</svg>
